<svg width="11.000000" height="7.000000" viewBox="0 0 11 7" fill="none" xmlns="http://www.w3.org/2000/svg" xmlns:xlink="http://www.w3.org/1999/xlink">
	<desc>
			Created with Pixso.
	</desc>
	<defs/>
	<path id="Vector" d="M5.7 5.83L9.94 1.59C10.04 1.49 10.11 1.38 10.16 1.26C10.21 1.14 10.24 1.01 10.24 0.88C10.24 0.74 10.21 0.61 10.16 0.49C10.11 0.37 10.04 0.26 9.94 0.17C9.76 -0.02 9.5 -0.13 9.24 -0.13C8.98 -0.13 8.72 -0.02 8.54 0.17L5 3.71L1.45 0.17C1.27 -0.02 1.01 -0.13 0.75 -0.13C0.49 -0.13 0.23 -0.02 0.05 0.17C-0.05 0.26 -0.12 0.37 -0.17 0.49C-0.22 0.61 -0.25 0.74 -0.24 0.87C-0.25 1.01 -0.22 1.14 -0.17 1.26C-0.12 1.38 -0.05 1.49 0.05 1.59L4.29 5.83C4.38 5.92 4.49 5.99 4.61 6.04C4.73 6.09 4.86 6.12 5 6.12C5.13 6.12 5.26 6.09 5.38 6.04C5.5 5.99 5.61 5.92 5.7 5.83Z" fill="#535353" fill-opacity="1.000000" fill-rule="nonzero"/>
</svg>
