<svg width="20.000000" height="20.000000" viewBox="0 0 20 20" fill="none" xmlns="http://www.w3.org/2000/svg" xmlns:xlink="http://www.w3.org/1999/xlink">
	<desc>
			Created with Pixso.
	</desc>
	<defs/>
	<path id="Vector" d="M12.72 6.79L8.43 11.09L6.78 9.43C6.69 9.33 6.58 9.25 6.45 9.19C6.33 9.13 6.19 9.09 6.05 9.09C5.92 9.08 5.78 9.1 5.65 9.15C5.52 9.2 5.41 9.28 5.31 9.38C5.21 9.48 5.13 9.59 5.08 9.72C5.03 9.85 5.01 9.99 5.02 10.12C5.02 10.26 5.06 10.4 5.12 10.52C5.18 10.65 5.26 10.76 5.37 10.85L7.71 13.21C7.81 13.3 7.92 13.37 8.04 13.42C8.16 13.47 8.29 13.5 8.43 13.5C8.69 13.49 8.94 13.39 9.13 13.21L14.13 8.2C14.22 8.11 14.29 8 14.34 7.88C14.39 7.76 14.42 7.63 14.42 7.5C14.42 7.36 14.39 7.23 14.34 7.11C14.29 6.99 14.22 6.88 14.13 6.79C13.94 6.6 13.68 6.49 13.42 6.49C13.16 6.49 12.9 6.6 12.72 6.79ZM10 0C8.02 0 6.08 0.58 4.44 1.68C2.79 2.78 1.51 4.34 0.76 6.17C0 8 -0.2 10.01 0.19 11.95C0.57 13.89 1.53 15.67 2.92 17.07C4.32 18.46 6.1 19.42 8.04 19.8C9.98 20.19 11.99 19.99 13.82 19.23C15.65 18.48 17.21 17.2 18.31 15.55C19.41 13.91 20 11.97 20 10C20 8.68 19.74 7.38 19.23 6.17C18.73 4.95 17.99 3.85 17.07 2.92C16.14 2 15.04 1.26 13.82 0.76C12.61 0.25 11.31 0 10 0ZM10 18C8.41 18 6.87 17.53 5.55 16.65C4.23 15.77 3.21 14.52 2.6 13.06C2 11.59 1.84 9.99 2.15 8.43C2.46 6.88 3.22 5.46 4.34 4.34C5.46 3.22 6.88 2.46 8.43 2.15C9.99 1.84 11.59 2 13.06 2.6C14.52 3.21 15.77 4.23 16.65 5.55C17.53 6.87 18 8.41 18 10C18 12.12 17.15 14.15 15.65 15.65C14.15 17.15 12.12 18 10 18Z" fill="#82B09D" fill-opacity="1.000000" fill-rule="nonzero"/>
</svg>
