<svg width="74.000000" height="42.000000" viewBox="0 0 74 42" fill="none" xmlns="http://www.w3.org/2000/svg" xmlns:xlink="http://www.w3.org/1999/xlink">
	<desc>
			Created with Pixso.
	</desc>
	<defs/>
	<path id="Vector" d="M7.23 14.4L7.23 40.8C7.23 41.52 6.75 42 6.02 42L1.2 42C0.48 42 0 41.52 0 40.8L0 14.4C0 13.68 0.48 13.2 1.2 13.2L6.02 13.2C6.75 13.2 7.23 13.8 7.23 14.4ZM72.79 13.2L67.97 13.2C67.24 13.2 66.76 13.68 66.76 14.4L66.76 40.8C66.76 41.52 67.24 42 67.97 42L72.79 42C73.51 42 74 41.52 74 40.8L74 14.4C74 13.8 73.51 13.2 72.79 13.2Z" fill="#FFBC57" fill-opacity="1.000000" fill-rule="nonzero"/>
	<path id="Vector" d="M64.35 21.6L64.35 28.8C64.35 29.52 63.87 30 63.14 30L10.85 30C10.12 30 9.64 29.52 9.64 28.8L9.64 21.6C9.64 20.88 10.12 20.4 10.85 20.4L63.14 20.4C63.87 20.4 64.35 20.88 64.35 21.6ZM10.85 18L25.06 18C25.79 18 26.27 17.52 26.27 16.79L26.27 1.2C26.27 0.48 25.79 0 25.06 0L10.85 0C10.12 0 9.64 0.48 9.64 1.2L9.64 16.79C9.64 17.52 10.12 18 10.85 18ZM29.89 18L44.1 18C44.83 18 45.31 17.52 45.31 16.79L45.31 1.2C45.31 0.48 44.83 0 44.1 0L29.89 0C29.16 0 28.68 0.48 28.68 1.2L28.68 16.79C28.68 17.52 29.16 18 29.89 18ZM63.14 0L48.93 0C48.2 0 47.72 0.48 47.72 1.2L47.72 16.79C47.72 17.52 48.2 18 48.93 18L63.14 18C63.87 18 64.35 17.52 64.35 16.79L64.35 1.2C64.35 0.48 63.87 0 63.14 0ZM63.14 32.4L10.85 32.4C10.12 32.4 9.64 32.88 9.64 33.59L9.64 40.8C9.64 41.52 10.12 42 10.85 42L17.83 42C18.55 42 19.03 41.52 19.03 40.8L19.03 39.59L54.96 39.59L54.96 40.8C54.96 41.52 55.44 42 56.16 42L63.14 42C63.87 42 64.35 41.52 64.35 40.8L64.35 33.59C64.35 32.88 63.87 32.4 63.14 32.4Z" fill="#FFBC57" fill-opacity="1.000000" fill-rule="nonzero"/>
</svg>
