<svg width="50.000000" height="24.000000" viewBox="0 0 50 24" fill="none" xmlns="http://www.w3.org/2000/svg" xmlns:xlink="http://www.w3.org/1999/xlink">
	<desc>
			Created with Pixso.
	</desc>
	<defs>
		<clipPath id="clip78_536">
			<rect id="arrow" width="24.000000" height="24.000000" transform="translate(50.000000 0.000000) rotate(90.000000)" fill="white" fill-opacity="0"/>
		</clipPath>
	</defs>
	<path id="UA" d="M10.74 14.19L10.74 5.18L12.41 5.18L12.41 14.32C12.41 17.16 10.29 19.24 7.04 19.24C3.78 19.24 1.67 17.16 1.67 14.32L1.67 5.18L3.34 5.18L3.34 14.19C3.34 16.22 4.73 17.67 7.04 17.67C9.35 17.67 10.74 16.22 10.74 14.19ZM17.72 15.08L16.32 19L14.57 19L19.64 5.18L21.37 5.18L26.45 19L24.69 19L23.3 15.08L17.72 15.08ZM20.45 7.36L18.24 13.6L22.77 13.6L20.56 7.36L20.45 7.36Z" fill="#535353" fill-opacity="1.000000" fill-rule="evenodd"/>
	<rect id="arrow" width="24.000000" height="24.000000" transform="translate(50.000000 0.000000) rotate(90.000000)" fill="#FFFFFF" fill-opacity="0"/>
	<g clip-path="url(#clip78_536)">
		<path id="Vector" d="M38.71 14.83L42.95 10.59C43.04 10.49 43.11 10.38 43.16 10.26C43.21 10.14 43.24 10.01 43.24 9.88C43.24 9.74 43.21 9.61 43.16 9.49C43.11 9.37 43.04 9.26 42.95 9.17C42.76 8.98 42.5 8.87 42.24 8.87C41.98 8.87 41.72 8.98 41.54 9.17L38 12.71L34.46 9.17C34.27 8.98 34.01 8.87 33.75 8.87C33.49 8.87 33.23 8.98 33.05 9.17C32.95 9.26 32.88 9.37 32.83 9.49C32.78 9.61 32.75 9.74 32.75 9.88C32.75 10.01 32.78 10.14 32.83 10.26C32.88 10.38 32.95 10.49 33.05 10.59L37.29 14.83C37.38 14.92 37.49 14.99 37.61 15.04C37.73 15.09 37.86 15.12 38 15.12C38.13 15.12 38.26 15.09 38.38 15.04C38.5 14.99 38.61 14.92 38.71 14.83Z" fill="#535353" fill-opacity="1.000000" fill-rule="nonzero"/>
	</g>
</svg>
