<svg width="50.000000" height="50.000000" viewBox="0 0 50 50" fill="none" xmlns="http://www.w3.org/2000/svg" xmlns:xlink="http://www.w3.org/1999/xlink">
	<desc>
			Created with Pixso.
	</desc>
	<defs>
		<clipPath id="clip40_912">
			<rect id="arrow" width="50.000000" height="50.000000" fill="white" fill-opacity="0"/>
		</clipPath>
	</defs>
	<g clip-path="url(#clip40_912)">
		<circle id="Ellipse 1" cx="25.000000" cy="25.000000" r="24.000000" stroke="#FFBC57" stroke-opacity="1.000000" stroke-width="2.000000"/>
		<path id="Vector" d="M29.93 19.83C29.84 19.62 29.66 19.44 29.45 19.35C29.34 19.31 29.22 19.28 29.11 19.28L20.18 19.28C19.94 19.28 19.71 19.37 19.55 19.54C19.38 19.71 19.29 19.94 19.29 20.17C19.29 20.41 19.38 20.64 19.55 20.8C19.71 20.97 19.94 21.07 20.18 21.07L26.96 21.07L19.54 28.47C19.46 28.55 19.39 28.65 19.35 28.76C19.3 28.87 19.28 28.98 19.28 29.1C19.28 29.22 19.3 29.34 19.35 29.45C19.39 29.55 19.46 29.65 19.54 29.74C19.63 29.82 19.73 29.89 19.84 29.93C19.94 29.98 20.06 30 20.18 30C20.3 30 20.41 29.98 20.52 29.93C20.63 29.89 20.73 29.82 20.81 29.74L28.21 22.33L28.21 29.1C28.21 29.34 28.31 29.57 28.48 29.73C28.64 29.9 28.87 29.99 29.11 29.99C29.34 29.99 29.57 29.9 29.74 29.73C29.91 29.57 30 29.34 30 29.1L30 20.17C30 20.06 29.97 19.94 29.93 19.83Z" fill="#FFBC57" fill-opacity="1.000000" fill-rule="nonzero"/>
	</g>
</svg>
