<svg width="20.000000" height="20.000000" viewBox="0 0 20 20" fill="none" xmlns="http://www.w3.org/2000/svg" xmlns:xlink="http://www.w3.org/1999/xlink">
	<desc>
			Created with Pixso.
	</desc>
	<defs/>
	<path id="Vector" d="M10 0C4.5 0 0 4.5 0 10C0 15.5 4.5 20 10 20C15.5 20 20 15.5 20 10C20 4.5 15.5 0 10 0ZM13.7 12.3C14.1 12.7 14.1 13.3 13.7 13.7C13.3 14.1 12.7 14.1 12.3 13.7L10 11.4L7.69 13.7C7.3 14.1 6.69 14.1 6.3 13.7C5.9 13.3 5.9 12.7 6.3 12.3L8.59 10L6.3 7.7C5.9 7.3 5.9 6.7 6.3 6.3C6.69 5.9 7.3 5.9 7.69 6.3L10 8.6L12.3 6.3C12.7 5.9 13.3 5.9 13.7 6.3C14.1 6.7 14.1 7.3 13.7 7.7L11.4 10L13.7 12.3Z" fill="#FFFFFF" fill-opacity="1.000000" fill-rule="nonzero"/>
</svg>
