<svg width="167.000000" height="42.000000" viewBox="0 0 167 42" fill="none" xmlns="http://www.w3.org/2000/svg" xmlns:xlink="http://www.w3.org/1999/xlink">
	<desc>
			Created with Pixso.
	</desc>
	<defs/>
	<path id="Vector" d="M15.52 32.52L11.89 32.52L11.89 30.65L21.03 30.65L21.03 32.52L17.4 32.52L17.4 41.75L15.4 41.75L15.4 32.52L15.52 32.52ZM30.05 41.75L23.41 41.75L23.41 30.65L29.8 30.65L29.8 32.52L25.29 32.52L25.29 35.27L29.3 35.27L29.3 37.13L25.29 37.13L25.29 40L29.93 40L29.93 41.75L30.05 41.75ZM39.7 30.65L41.96 30.65L38.2 36.01L42.08 41.62L39.83 41.62L36.94 37.51L34.06 41.62L31.81 41.62L35.69 36.01L31.93 30.65L34.19 30.65L36.94 34.64L39.7 30.65ZM53.48 41.75L51.48 41.75L51.48 37.01L46.47 37.01L46.47 41.75L44.46 41.75L44.46 30.65L46.47 30.65L46.47 35.14L51.6 35.14L51.6 30.65L53.48 30.65L53.48 41.75ZM56.36 36.26C56.36 34.64 56.86 33.27 57.99 32.15C59.12 31.03 60.5 30.53 62.13 30.53C63.75 30.53 65.13 31.03 66.26 32.15C67.39 33.27 67.89 34.64 67.89 36.26C67.89 37.88 67.39 39.25 66.26 40.37C65.13 41.5 63.75 42 62.13 42C60.5 42 59.12 41.5 57.99 40.37C56.86 39.25 56.36 37.88 56.36 36.26ZM58.37 36.26C58.37 37.38 58.74 38.26 59.37 39C60 39.75 61 40.13 62 40.13C63.13 40.13 64 39.75 64.76 39C65.38 38.26 65.76 37.38 65.76 36.26C65.76 35.14 65.38 34.14 64.63 33.52C63.88 32.77 63 32.4 62 32.4C60.87 32.4 60 32.77 59.37 33.52C58.74 34.14 58.37 35.14 58.37 36.26ZM78.91 41.75L77.03 41.75L77.03 32.52L73.78 32.52L73.53 34.64C73.4 35.89 73.28 37.01 73.03 37.88C72.77 38.75 72.65 39.5 72.4 40C72.15 40.5 71.9 41 71.52 41.25C71.15 41.5 70.9 41.75 70.52 41.75C70.14 41.87 69.77 41.87 69.27 41.75L69.27 39.88C69.52 39.88 69.64 39.88 69.89 39.88C70.02 39.88 70.27 39.63 70.39 39.38C70.64 39.13 70.77 38.75 70.9 38.26C71.27 37.13 71.52 35.39 71.77 32.9L71.9 30.65L78.91 30.65L78.91 41.75ZM81.79 36.26C81.79 34.64 82.3 33.27 83.42 32.15C84.55 31.03 85.93 30.53 87.56 30.53C89.19 30.53 90.56 31.03 91.69 32.15C92.82 33.27 93.32 34.64 93.32 36.26C93.32 37.88 92.82 39.25 91.69 40.37C90.56 41.5 89.19 42 87.56 42C85.93 42 84.55 41.5 83.42 40.37C82.3 39.25 81.79 37.88 81.79 36.26ZM83.92 36.26C83.92 37.38 84.3 38.26 84.93 39C85.55 39.75 86.56 40.13 87.56 40.13C88.69 40.13 89.56 39.75 90.31 39C90.94 38.26 91.32 37.38 91.32 36.26C91.32 35.14 90.94 34.14 90.19 33.52C89.44 32.77 88.56 32.4 87.56 32.4C86.43 32.4 85.55 32.77 84.93 33.52C84.18 34.14 83.92 35.14 83.92 36.26ZM98.21 41.75L96.2 41.75L96.2 30.65L102.47 30.65L102.47 32.52L98.21 32.52L98.21 41.75ZM107.1 41.75L105.1 41.75L105.1 30.65L107.1 30.65L107.1 41.75ZM109.98 28.78C109.98 28.54 110.11 28.29 110.23 28.04C110.48 27.91 110.74 27.79 110.99 27.79C111.24 27.79 111.49 27.91 111.74 28.04C111.99 28.16 111.99 28.41 111.99 28.78C111.99 29.16 111.86 29.41 111.74 29.53C111.61 29.66 111.36 29.78 110.99 29.78C110.74 29.78 110.48 29.66 110.23 29.53C110.11 29.28 109.98 29.03 109.98 28.78ZM113.24 41.75L111.24 41.75L111.24 30.65L113.24 30.65L113.24 41.75ZM112.61 28.78C112.61 28.54 112.74 28.29 112.87 28.04C113.12 27.91 113.37 27.79 113.62 27.79C113.87 27.79 114.12 27.91 114.37 28.04C114.62 28.29 114.62 28.41 114.62 28.78C114.62 29.16 114.49 29.41 114.37 29.53C114.24 29.78 113.99 29.78 113.62 29.78C113.24 29.78 112.99 29.66 112.87 29.53C112.74 29.28 112.61 29.03 112.61 28.78ZM128.9 39.25L129.65 40.75C129.28 41.12 128.78 41.37 128.15 41.62C127.52 41.87 126.77 42 126.14 42C124.39 42 123.01 41.5 122.01 40.37C121.01 39.38 120.38 38.01 120.38 36.26C120.38 34.64 120.88 33.27 121.89 32.15C122.89 31.03 124.27 30.53 126.02 30.53C127.4 30.53 128.53 30.9 129.4 31.65L128.53 33.15C127.77 32.65 126.9 32.4 126.02 32.4C125.02 32.4 124.14 32.77 123.39 33.4C122.76 34.14 122.39 35.02 122.39 36.26C122.39 37.38 122.76 38.38 123.39 39.13C124.14 39.88 125.02 40.25 126.14 40.25C127.27 40.13 128.15 39.88 128.9 39.25ZM141.18 41.75L139.3 41.75L139.3 37.01L134.16 37.01L134.16 41.75L132.16 41.75L132.16 30.65L134.16 30.65L134.16 35.14L139.3 35.14L139.3 30.65L141.18 30.65L141.18 41.75ZM152.08 30.65L154.08 30.65L150.32 39.13C149.95 40 149.45 40.62 149.07 41.12C148.57 41.5 148.07 41.75 147.32 41.75C146.57 41.75 146.19 41.62 145.81 41.25L146.44 39.63C146.69 39.75 146.94 39.88 147.32 39.88C147.82 39.88 148.19 39.63 148.44 39.13L148.57 38.75L143.68 30.65L145.94 30.65L149.57 36.89L152.08 30.65Z" fill="#535353" fill-opacity="1.000000" fill-rule="nonzero"/>
	<path id="Vector" d="M9.64 11.71L20.41 24.8L13.52 24.8L4.88 13.95L4.88 24.8L-0.51 24.8L-0.51 0.24L4.88 0.24L4.88 10.21L13.15 0.24L19.79 0.24L9.64 11.71ZM119.51 5.35L127.03 5.35L127.03 24.8L132.42 24.8L132.42 5.35L139.93 5.35L139.93 0.24L119.39 0.24L119.39 5.35L119.51 5.35ZM35.95 14.95L43.59 24.8L37.08 24.8L30.69 16.07L28.68 16.07L28.68 24.8L23.3 24.8L23.3 0.24L23.92 0.24C25.05 0.24 26.3 0.24 27.68 0.24C29.06 0.24 30.19 0.24 31.06 0.24C38.58 0.24 40.21 4.48 40.21 8.1C40.21 9.97 39.71 11.59 38.71 12.83C37.83 13.7 36.95 14.45 35.95 14.95ZM29.31 5.35C29.06 5.35 28.93 5.35 28.68 5.35L28.68 10.96L30.69 10.96C31.81 10.96 32.82 10.71 33.57 10.09C34.19 9.59 34.57 8.84 34.57 7.97C34.57 6.72 34.19 5.23 30.81 5.23C30.69 5.23 30.56 5.23 30.31 5.23C30.06 5.35 29.68 5.35 29.31 5.35ZM110.87 0.24L121.27 24.8L115.5 24.8L113.12 18.81L103.98 18.81L101.6 24.8L96.08 24.8L106.36 0.24L110.87 0.24ZM108.49 7.72L105.98 13.7L110.99 13.7L108.49 7.72ZM166.49 12.58C166.49 16.2 165.24 19.31 162.86 21.68C160.48 24.05 157.35 25.29 153.71 25.29C150.08 25.29 146.95 24.17 144.57 21.81C142.19 19.44 140.94 16.45 140.94 12.71C140.94 9.22 142.19 6.1 144.57 3.73C146.95 1.37 150.08 0.12 153.71 0.12C157.35 0.12 160.48 1.24 162.86 3.61C165.24 5.73 166.49 8.84 166.49 12.58ZM158.98 17.94C160.35 16.45 160.98 14.7 160.98 12.46C160.98 10.21 160.35 8.47 158.85 6.97C157.47 5.6 155.72 4.86 153.71 4.86C151.58 4.86 149.96 5.6 148.58 6.97C147.2 8.35 146.57 10.21 146.57 12.46C146.57 14.7 147.2 16.45 148.58 17.82C149.96 19.31 151.58 19.94 153.71 19.94C155.97 20.06 157.6 19.44 158.98 17.94ZM93.08 0.24L86.81 16.45L80.3 0.24L74.54 0.24L84.68 24.8L88.69 24.8L98.59 0.24L93.08 0.24Z" fill="#535353" fill-opacity="1.000000" fill-rule="nonzero"/>
	<path id="XMLID_1_" d="M70.1 2.49C68.59 0.99 66.58 0.12 64.45 0.12C62.31 0.12 60.3 0.99 58.79 2.49L58.42 2.86L57.91 2.36C56.41 0.87 54.4 0 52.26 0C50.13 0 48.12 0.87 46.61 2.36C45.1 3.86 44.22 5.86 44.22 7.98C44.22 10.1 45.1 12.09 46.61 13.59L57.54 24.44C57.79 24.69 58.04 24.81 58.42 24.81C58.79 24.81 59.04 24.69 59.3 24.44L70.22 13.59C71.73 12.09 72.61 10.1 72.61 7.98C72.61 5.86 71.73 3.99 70.1 2.49Z" fill="#00B5FF" fill-opacity="1.000000" fill-rule="nonzero"/>
	<mask id="mask10_12" mask-type="alpha" maskUnits="userSpaceOnUse" x="44.229492" y="0.000000" width="28.384521" height="24.818481">
		<path id="XMLID_1_" d="M70.1 2.49C68.59 0.99 66.58 0.12 64.45 0.12C62.31 0.12 60.3 0.99 58.79 2.49L58.42 2.86L57.91 2.36C56.41 0.87 54.4 0 52.26 0C50.13 0 48.12 0.87 46.61 2.36C45.1 3.86 44.22 5.86 44.22 7.98C44.22 10.1 45.1 12.09 46.61 13.59L57.54 24.44C57.79 24.69 58.04 24.81 58.42 24.81C58.79 24.81 59.04 24.69 59.3 24.44L70.22 13.59C71.73 12.09 72.61 10.1 72.61 7.98C72.61 5.86 71.73 3.99 70.1 2.49Z" fill="#00B5FF" fill-opacity="1.000000" fill-rule="nonzero"/>
	</mask>
	<g mask="url(#mask10_12)">
		<rect id="Rectangle 1" x="43.293457" y="10.322716" width="30.067518" height="15.084416" fill="#FFBC00" fill-opacity="1.000000"/>
	</g>
</svg>
