<svg width="17.000000" height="17.000000" viewBox="0 0 17 17" fill="none" xmlns="http://www.w3.org/2000/svg" xmlns:xlink="http://www.w3.org/1999/xlink">
	<desc>
			Created with Pixso.
	</desc>
	<defs/>
	<path id="Vector" d="M14.2 8.83C14.01 8.83 13.82 8.77 13.64 8.73C13.27 8.65 12.9 8.54 12.55 8.4C12.16 8.26 11.73 8.27 11.35 8.42C10.97 8.58 10.66 8.87 10.48 9.24L10.3 9.61C9.48 9.16 8.74 8.6 8.08 7.94C7.42 7.29 6.86 6.54 6.41 5.73L6.76 5.5C7.13 5.31 7.42 5 7.57 4.62C7.73 4.24 7.74 3.81 7.6 3.43C7.46 3.07 7.35 2.71 7.27 2.34C7.23 2.15 7.19 1.96 7.17 1.77C7.07 1.18 6.76 0.65 6.3 0.27C5.84 -0.11 5.27 -0.31 4.67 -0.31L2.17 -0.31C1.81 -0.31 1.46 -0.23 1.13 -0.09C0.8 0.06 0.51 0.27 0.27 0.54C0.03 0.81 -0.14 1.13 -0.25 1.47C-0.35 1.82 -0.38 2.18 -0.33 2.54C0.11 6.03 1.71 9.27 4.2 11.76C6.69 14.24 9.94 15.82 13.44 16.25L13.75 16.25C14.37 16.25 14.96 16.03 15.42 15.62C15.68 15.38 15.89 15.1 16.04 14.77C16.18 14.45 16.25 14.1 16.25 13.75L16.25 11.25C16.24 10.67 16.03 10.11 15.66 9.67C15.28 9.23 14.76 8.93 14.2 8.83ZM14.61 13.83C14.61 13.95 14.59 14.06 14.54 14.17C14.49 14.28 14.42 14.38 14.33 14.45C14.24 14.53 14.13 14.59 14.01 14.63C13.89 14.67 13.77 14.68 13.65 14.66C10.52 14.26 7.63 12.83 5.41 10.6C3.19 8.37 1.77 5.47 1.39 2.34C1.37 2.22 1.39 2.1 1.42 1.98C1.46 1.86 1.52 1.76 1.6 1.66C1.67 1.57 1.77 1.5 1.88 1.45C1.98 1.4 2.1 1.38 2.22 1.38L4.72 1.38C4.91 1.37 5.1 1.44 5.26 1.56C5.41 1.68 5.51 1.85 5.55 2.04C5.59 2.26 5.63 2.49 5.68 2.71C5.77 3.15 5.9 3.58 6.06 4L4.89 4.55C4.8 4.59 4.71 4.66 4.63 4.74C4.56 4.82 4.5 4.91 4.46 5.01C4.42 5.12 4.41 5.23 4.41 5.34C4.41 5.45 4.44 5.55 4.49 5.65C5.69 8.22 7.75 10.29 10.32 11.49C10.52 11.57 10.75 11.57 10.95 11.49C11.06 11.45 11.15 11.39 11.23 11.32C11.32 11.24 11.38 11.15 11.43 11.05L11.95 9.89C12.38 10.04 12.82 10.17 13.26 10.27C13.48 10.32 13.71 10.36 13.94 10.39C14.13 10.44 14.3 10.54 14.42 10.69C14.54 10.85 14.6 11.03 14.6 11.23L14.61 13.83Z" fill="#9700FF" fill-opacity="1.000000" fill-rule="nonzero"/>
</svg>
