<svg width="20.000000" height="15.000000" viewBox="0 0 20 15" fill="none" xmlns="http://www.w3.org/2000/svg" xmlns:xlink="http://www.w3.org/1999/xlink">
	<desc>
			Created with Pixso.
	</desc>
	<defs>
		<clipPath id="clip28_597">
			<rect id="Email" width="20.000000" height="15.121951" transform="translate(0.000000 -0.561035)" fill="white" fill-opacity="0"/>
		</clipPath>
	</defs>
	<rect id="Email" width="20.000000" height="15.121951" transform="translate(0.000000 -0.561035)" fill="#FFFFFF" fill-opacity="0"/>
	<g clip-path="url(#clip28_597)">
		<path id="Icons" d="M0 1.21L0 0.69C0 0.36 0.13 0.04 0.36 -0.2C0.6 -0.43 0.91 -0.57 1.25 -0.57L18.75 -0.57C19.08 -0.57 19.39 -0.43 19.63 -0.2C19.86 0.04 20 0.36 20 0.69L20 1.21L10 7.51L0 1.21ZM10.33 8.79C10.23 8.85 10.11 8.89 10 8.89C9.88 8.89 9.76 8.85 9.66 8.79L0 2.7L0 13.3C0 13.63 0.13 13.95 0.36 14.19C0.6 14.42 0.91 14.56 1.25 14.56L18.75 14.56C19.08 14.56 19.39 14.42 19.63 14.19C19.86 13.95 20 13.63 20 13.3L20 2.7L10.33 8.79Z" fill="#9700FF" fill-opacity="1.000000" fill-rule="nonzero"/>
	</g>
</svg>
