<svg width="20.000000" height="19.000000" viewBox="0 0 20 19" fill="none" xmlns="http://www.w3.org/2000/svg" xmlns:xlink="http://www.w3.org/1999/xlink">
	<desc>
			Created with Pixso.
	</desc>
	<defs>
		<clipPath id="clip28_600">
			<rect id="Location" width="20.000000" height="19.512196" transform="translate(0.000000 -0.756104)" fill="white" fill-opacity="0"/>
		</clipPath>
	</defs>
	<rect id="Location" width="20.000000" height="19.512196" transform="translate(0.000000 -0.756104)" fill="#FFFFFF" fill-opacity="0"/>
	<g clip-path="url(#clip28_600)">
		<path id="Vector" d="M10 0.86C8.23 0.87 6.53 1.55 5.28 2.77C4.03 3.99 3.33 5.64 3.33 7.37C3.33 10.02 5.3 12.21 7.38 14.54C8.04 15.28 8.73 16.04 9.34 16.81C9.41 16.91 9.51 16.99 9.63 17.04C9.74 17.1 9.87 17.12 10 17.12C10.12 17.12 10.25 17.1 10.36 17.04C10.48 16.99 10.58 16.91 10.66 16.81C11.26 16.04 11.95 15.28 12.61 14.54C14.69 12.21 16.66 10.02 16.66 7.37C16.66 5.64 15.96 3.99 14.71 2.77C13.46 1.55 11.76 0.87 10 0.86ZM10 9.81C9.5 9.81 9.02 9.66 8.61 9.4C8.19 9.13 7.87 8.75 7.69 8.3C7.5 7.86 7.45 7.37 7.54 6.89C7.64 6.42 7.88 5.99 8.23 5.64C8.58 5.3 9.02 5.07 9.51 4.98C9.99 4.88 10.49 4.93 10.95 5.12C11.41 5.3 11.8 5.61 12.07 6.01C12.35 6.41 12.5 6.89 12.5 7.37C12.5 8.02 12.23 8.64 11.76 9.09C11.29 9.55 10.66 9.81 10 9.81Z" fill="#9700FF" fill-opacity="1.000000" fill-rule="nonzero"/>
	</g>
</svg>
