<?xml version="1.0" standalone="no"?>
<!DOCTYPE svg PUBLIC "-//W3C//DTD SVG 20010904//EN"
 "http://www.w3.org/TR/2001/REC-SVG-20010904/DTD/svg10.dtd">
<svg version="1.0" xmlns="http://www.w3.org/2000/svg"
 width="225.000000pt" height="225.000000pt" viewBox="0 0 225.000000 225.000000"
 preserveAspectRatio="xMidYMid meet">

<g transform="translate(0.000000,225.000000) scale(0.100000,-0.100000)"
fill="#000000" stroke="none">
<path d="M940 2195 c-149 -29 -259 -70 -358 -132 -29 -18 -55 -33 -58 -33 -11
0 -149 -118 -189 -161 -53 -57 -86 -105 -78 -113 3 -3 1 -6 -6 -6 -7 0 -9 -5
-6 -10 4 -6 1 -9 -5 -8 -17 4 -46 -52 -41 -81 1 -7 -2 -10 -8 -6 -10 5 -15 -7
-12 -27 0 -5 -5 -7 -12 -5 -6 1 -10 -5 -8 -13 7 -25 1 -64 -10 -70 -5 -4 -9
-13 -7 -21 2 -8 -4 -13 -14 -11 -22 3 -34 -16 -14 -24 11 -4 13 -12 6 -29 -5
-14 -5 -27 0 -30 4 -3 13 7 19 22 l11 28 -6 -30 c-3 -16 -10 -31 -15 -33 -5
-2 -9 -10 -9 -18 0 -17 -36 -19 -43 -1 -3 6 -6 2 -6 -9 -1 -15 7 -24 24 -28
29 -7 36 -46 8 -46 -15 0 -15 -2 -4 -9 8 -5 11 -16 8 -26 -4 -9 -3 -14 2 -11
4 3 14 34 21 68 7 35 17 70 22 78 8 13 9 13 5 0 -2 -8 -10 -46 -17 -85 -18
-99 -19 -103 -30 -85 -6 9 -10 10 -10 3 0 -6 5 -15 10 -18 6 -3 10 -39 10 -78
0 -45 -4 -67 -9 -58 -5 7 -7 41 -6 75 4 59 4 59 -3 11 -9 -60 -17 -75 -43 -75
-25 0 -24 -14 2 -32 15 -10 21 -24 21 -53 0 -22 -5 -41 -11 -43 -27 -9 -8 -38
22 -33 4 0 7 -6 7 -15 0 -10 -6 -14 -15 -10 -8 3 -15 1 -15 -4 0 -6 7 -10 16
-10 8 0 12 -4 9 -10 -3 -5 2 -10 12 -11 16 0 16 -1 -2 -9 -11 -5 -15 -9 -10
-9 6 -1 4 -5 -4 -10 -17 -11 -6 -31 17 -31 12 0 13 -3 4 -12 -13 -13 -17 -32
-4 -25 4 3 8 -6 8 -19 5 -73 152 -300 262 -406 256 -244 583 -345 937 -287
434 71 802 432 866 849 6 44 5 58 -8 72 -14 16 -13 18 11 24 29 7 34 22 11 30
-8 4 -15 13 -15 21 0 8 -4 11 -10 8 -16 -10 -12 7 7 27 11 12 12 18 3 18 -8 0
-11 9 -8 25 3 13 0 26 -6 29 -6 2 -4 5 5 5 8 1 20 -4 27 -11 9 -9 12 -8 12 5
0 9 -7 18 -15 18 -8 1 -21 2 -27 3 -9 1 -12 17 -11 46 1 26 -3 47 -10 52 -9 6
-9 8 1 8 15 0 16 46 2 55 -7 4 -9 -2 -7 -17 2 -12 2 -17 0 -9 -4 12 -6 12 -15
0 -6 -10 -7 -6 -2 11 4 14 7 32 7 40 0 8 5 18 10 22 6 4 4 12 -5 22 -9 8 -18
13 -21 10 -3 -3 -8 4 -12 16 -4 12 -4 24 -1 27 3 4 6 -1 6 -10 0 -9 4 -17 10
-17 10 0 3 27 -12 47 -12 15 -2 33 20 33 12 0 13 3 4 12 -8 8 -15 8 -26 -1
-16 -14 -36 -7 -36 12 0 7 4 6 10 -3 9 -13 10 -13 10 0 0 9 -7 26 -17 39 -15
22 -15 25 0 36 25 18 21 28 -9 21 -19 -5 -24 -4 -18 6 12 19 14 38 4 38 -18 0
-40 33 -35 51 4 10 2 19 -4 19 -5 0 -13 9 -16 20 -4 11 -10 18 -15 15 -9 -6
-31 18 -34 37 -3 23 -17 39 -28 32 -6 -4 -8 -3 -5 3 3 5 -15 30 -41 55 -161
153 -342 245 -556 283 -105 18 -285 18 -376 0z m459 -234 c14 -9 9 -41 -7 -41
-15 0 -34 28 -27 40 8 12 16 13 34 1z m-79 -64 c99 -28 165 -56 235 -103 39
-26 75 -47 82 -47 7 0 10 -4 8 -8 -3 -4 10 -18 29 -32 26 -20 36 -23 47 -14
11 10 11 9 2 -3 -10 -13 -5 -24 21 -58 18 -23 37 -38 41 -34 5 4 5 2 2 -4 -3
-6 7 -30 23 -53 15 -24 36 -61 46 -82 9 -22 21 -39 26 -39 5 0 6 -10 3 -21 -5
-16 -4 -19 5 -14 9 5 10 1 5 -15 -5 -16 -4 -20 5 -15 9 5 10 1 5 -15 -4 -14
-3 -20 3 -16 12 7 25 -58 17 -84 -4 -12 -2 -20 5 -20 8 0 11 -18 8 -55 -2 -43
0 -55 12 -56 12 -1 12 -2 -1 -6 -12 -3 -18 -20 -21 -61 -14 -146 -90 -320
-192 -440 -26 -30 -43 -59 -40 -64 5 -7 2 -8 -5 -3 -8 4 -25 -4 -44 -23 -37
-35 -134 -98 -183 -118 -19 -8 -34 -18 -34 -23 0 -5 -10 -9 -22 -8 -13 0 -50
-7 -83 -17 -33 -9 -93 -19 -132 -23 -40 -3 -73 -10 -73 -15 0 -5 -8 -5 -18 1
-9 5 -30 7 -45 4 -16 -3 -27 -1 -27 6 0 6 -10 11 -23 11 -12 0 -54 9 -92 21
-39 11 -77 22 -85 23 -34 6 -212 120 -249 160 -23 24 -25 24 -38 8 -13 -16
-14 -16 -5 2 7 15 -3 35 -52 100 -34 44 -70 100 -80 124 -17 38 -23 43 -45 37
-24 -5 -24 -4 -6 6 11 7 21 13 22 13 1 1 -7 30 -17 64 -11 34 -25 103 -31 153
-10 76 -14 89 -28 85 -13 -5 -13 -4 1 7 12 9 21 39 28 88 6 41 20 103 33 139
12 36 22 70 22 75 0 6 6 16 13 23 7 8 10 18 7 23 -4 5 -1 9 6 9 7 0 9 3 6 7
-4 3 1 12 11 20 9 8 11 12 5 8 -22 -11 -14 5 15 32 15 15 20 23 12 19 -8 -5 0
4 18 19 17 14 32 33 32 41 0 8 5 14 11 14 5 0 7 5 3 12 -4 6 -3 8 3 5 5 -4 23
8 39 24 78 82 228 167 351 198 43 11 87 22 98 25 38 10 250 -2 305 -17z
m-1193 -543 c-3 -3 -12 -4 -19 -1 -8 3 -5 6 6 6 11 1 17 -2 13 -5z m170 -266
c-3 -8 -6 -5 -6 6 -1 11 2 17 5 13 3 -3 4 -12 1 -19z m-197 -7 c0 -5 -7 -11
-15 -15 -15 -5 -20 5 -8 17 9 10 23 9 23 -2z m20 -38 c0 -15 -2 -15 -9 -4 -7
11 -10 10 -14 -5 -4 -16 -5 -16 -6 4 -1 13 5 22 14 22 8 0 15 -8 15 -17z m10
-55 c0 -23 -3 -29 -11 -21 -6 6 -8 20 -4 32 9 30 15 26 15 -11z m-33 -20 c-3
-8 -6 -5 -6 6 -1 11 2 17 5 13 3 -3 4 -12 1 -19z m20 -60 c-3 -8 -6 -5 -6 6
-1 11 2 17 5 13 3 -3 4 -12 1 -19z m30 -40 c-3 -7 -5 -2 -5 12 0 14 2 19 5 13
2 -7 2 -19 0 -25z m1403 -488 c-20 -13 -33 -13 -25 0 3 6 14 10 23 10 15 0 15
-2 2 -10z m-60 -25 c-14 -8 -34 -14 -45 -14 -13 0 -7 5 15 13 47 18 61 18 30
1z"/>
<path d="M988 1870 c-26 -5 -52 -11 -57 -15 -15 -9 -12 -42 8 -100 15 -41 19
-47 27 -32 20 35 255 41 262 6 4 -22 -42 -151 -72 -204 -48 -81 -87 -54 -165
115 -17 36 -30 63 -31 60 0 -3 23 -70 50 -149 56 -160 60 -196 20 -196 -38 0
-79 83 -85 172 -4 63 -39 223 -64 285 l-10 28 -58 -25 c-32 -14 -82 -42 -112
-62 -68 -45 -171 -144 -171 -165 0 -14 93 -84 302 -227 42 -29 83 -63 91 -75
14 -21 13 -23 -13 -35 -42 -18 -76 3 -195 118 -55 54 -126 117 -158 141 -67
50 -64 52 -122 -65 -34 -70 -57 -153 -70 -252 -7 -51 -6 -51 23 -58 36 -7 132
-3 132 7 0 4 -4 10 -10 13 -5 3 -10 18 -10 32 0 41 41 182 59 203 16 20 17 19
76 -19 85 -55 159 -133 151 -159 -8 -23 -75 -47 -174 -61 -47 -7 -32 -9 87
-10 143 -1 225 -14 218 -35 -6 -18 -88 -45 -137 -45 -25 0 -72 6 -105 14 -33
9 -118 18 -189 22 l-129 6 7 -59 c14 -117 69 -275 118 -338 19 -25 25 -22 228
132 162 123 210 152 250 152 20 0 20 0 -2 -32 -48 -70 -86 -100 -176 -143 -50
-24 -130 -69 -177 -101 -98 -65 -97 -62 -7 -145 69 -64 152 -121 217 -149 45
-19 48 -20 61 -3 7 10 23 50 34 88 31 104 33 114 10 72 l-21 -38 -67 36 c-37
19 -85 51 -107 70 l-40 35 44 39 c63 56 161 112 191 109 25 -3 25 -3 24 -108
l-1 -105 23 79 c37 131 54 166 81 177 43 16 46 13 38 -48 -5 -41 -22 -86 -61
-159 -48 -89 -114 -248 -114 -273 0 -5 30 -14 67 -21 140 -27 363 -8 363 30 0
10 -31 107 -69 216 -89 257 -89 257 -56 272 22 10 27 9 41 -14 11 -16 20 -21
24 -14 5 8 9 6 13 -5 5 -10 3 -14 -5 -9 -8 5 -9 0 -4 -17 4 -13 12 -53 17 -89
13 -99 37 -208 60 -278 19 -56 23 -62 42 -56 39 11 151 75 197 112 50 40 130
122 130 134 0 8 -97 81 -255 190 -60 42 -122 89 -137 105 l-27 28 29 13 c25
12 34 10 72 -9 24 -12 72 -53 107 -91 67 -73 217 -198 237 -198 7 0 32 42 57
93 47 96 81 220 75 278 l-3 34 -255 5 c-140 3 -263 9 -272 14 -27 13 -22 26
20 43 50 21 128 21 237 1 50 -10 132 -18 184 -20 l94 -3 -6 70 c-10 125 -93
335 -133 335 -15 0 -144 -87 -144 -97 0 -3 7 0 15 7 8 7 21 10 28 7 28 -11
102 -202 90 -233 -7 -18 -81 -24 -163 -13 -93 11 -108 16 -120 38 -11 22 13
57 93 140 50 52 49 51 -57 -29 -114 -86 -158 -110 -201 -110 -24 0 -24 1 -7
22 68 85 99 110 186 151 103 49 256 146 256 163 0 13 -120 130 -167 162 -43
30 -148 82 -167 82 -13 0 -33 -42 -52 -109 -4 -16 -3 -21 5 -17 25 16 221
-112 221 -144 0 -14 -106 -89 -172 -122 -44 -23 -61 -27 -76 -19 -11 6 -21 8
-24 6 -2 -3 -1 19 3 48 4 28 8 70 8 92 0 36 -3 31 -25 -40 -36 -115 -55 -155
-73 -155 -9 0 -27 -7 -39 -16 -21 -15 -22 -14 -21 18 0 27 2 30 9 13 7 -15 9
-9 9 26 1 33 11 65 32 105 81 151 144 305 135 330 -11 28 -233 43 -348 24z
m-127 -202 c1 -7 1 -16 0 -20 0 -5 4 -8 9 -8 6 0 10 -8 10 -18 0 -10 3 -22 7
-26 4 -3 7 -14 8 -24 1 -9 7 -47 14 -85 16 -84 7 -102 -48 -92 -45 8 -211 95
-219 113 -10 28 157 172 200 172 10 0 19 -6 19 -12z m76 -250 c-3 -7 -5 -2 -5
12 0 14 2 19 5 13 2 -7 2 -19 0 -25z m297 -92 c9 -13 7 -20 -7 -31 -25 -18
-47 -8 -47 20 0 37 34 44 54 11z m-149 -20 c0 -10 -8 -24 -18 -30 -24 -15 -53
19 -35 41 16 20 53 12 53 -11z m363 -71 c-3 -3 -9 2 -12 12 -6 14 -5 15 5 6 7
-7 10 -15 7 -18z m-488 -10 c17 -20 5 -45 -20 -45 -23 0 -35 22 -26 45 7 19
30 19 46 0z m-153 -17 c-3 -8 -6 -5 -6 6 -1 11 2 17 5 13 3 -3 4 -12 1 -19z
m507 16 c19 -7 21 -35 4 -52 -7 -7 -17 -8 -30 -1 -21 11 -23 30 -6 47 14 14
12 14 32 6z m-189 -74 c12 0 26 5 33 12 9 9 12 7 11 -12 0 -14 -2 -20 -5 -15
-2 6 -22 9 -44 9 -31 -2 -40 2 -40 14 0 12 3 13 12 4 7 -7 21 -12 33 -12z
m102 -2 c-3 -8 -6 -5 -6 6 -1 11 2 17 5 13 3 -3 4 -12 1 -19z m-187 -3 c-7 -9
-15 -13 -17 -11 -7 7 7 26 19 26 6 0 6 -6 -2 -15z m114 -23 c3 -5 -1 -9 -9 -9
-8 0 -12 4 -9 9 3 4 7 8 9 8 2 0 6 -4 9 -8z m-120 -17 c3 -8 1 -15 -4 -15 -6
0 -10 7 -10 15 0 8 2 15 4 15 2 0 6 -7 10 -15z m96 -35 c5 0 11 8 13 18 4 16
5 16 6 -1 1 -22 -28 -34 -40 -16 -5 8 -9 19 -9 24 1 6 5 2 11 -7 5 -10 14 -18
19 -18z m-160 5 c18 -21 5 -47 -22 -43 -26 3 -37 36 -16 49 18 12 24 11 38 -6z
m780 -17 c0 -40 -14 -95 -42 -166 -18 -45 -23 -52 -42 -46 -35 10 -88 48 -143
103 -54 53 -64 79 -39 100 21 17 132 39 204 40 l62 1 0 -32z m-406 -3 c7 -19
-20 -46 -39 -39 -22 9 -28 37 -10 51 19 13 41 8 49 -12z m-137 8 c-9 -2 -15
-8 -12 -13 3 -5 1 -11 -4 -14 -7 -5 -8 11 -2 32 1 1 9 1 19 1 16 -1 16 -2 -1
-6z m-127 -13 c0 -5 -5 -10 -11 -10 -5 0 -7 5 -4 10 3 6 8 10 11 10 2 0 4 -4
4 -10z m747 -47 c-3 -10 -5 -2 -5 17 0 19 2 27 5 18 2 -10 2 -26 0 -35z
m-1103 22 c27 -4 55 -9 62 -12 28 -11 13 -51 -45 -119 -96 -114 -133 -129
-168 -66 -25 44 -63 153 -63 181 0 28 74 34 214 16z m386 5 c0 -5 -5 -10 -11
-10 -5 0 -7 5 -4 10 3 6 8 10 11 10 2 0 4 -4 4 -10z m747 -32 c-3 -7 -5 -2 -5
12 0 14 2 19 5 13 2 -7 2 -19 0 -25z m-633 -34 c7 -19 -10 -44 -29 -44 -7 0
-18 7 -25 15 -10 12 -10 18 0 30 16 20 46 19 54 -1z m593 -6 c-3 -8 -6 -5 -6
6 -1 11 2 17 5 13 3 -3 4 -12 1 -19z m-747 -3 c15 -18 -2 -45 -30 -45 -23 0
-34 28 -19 46 15 18 33 18 49 -1z m415 -145 c44 -21 91 -49 104 -61 l24 -22
-56 -53 c-31 -29 -75 -65 -97 -79 -36 -23 -43 -24 -60 -12 -11 8 -17 17 -13
20 3 4 2 7 -3 7 -5 0 -10 8 -11 18 -1 9 -8 44 -17 77 -18 71 -20 127 -5 142
14 14 40 7 134 -37z m-494 3 c-12 -20 -14 -14 -5 12 4 9 9 14 11 11 3 -2 0
-13 -6 -23z m336 -20 c1 -24 0 -25 -6 -8 -7 17 -6 35 2 35 2 0 3 -12 4 -27z
m-356 -35 c-9 -20 -10 -18 -10 17 0 31 2 36 9 23 6 -10 7 -25 1 -40z m216 -16
c33 -45 91 -166 95 -198 3 -27 0 -29 -46 -36 -26 -5 -82 -7 -125 -6 l-76 3 3
40 c4 41 50 164 78 203 21 30 46 28 71 -6z"/>
<path d="M2145 1420 c3 -5 10 -10 16 -10 5 0 9 5 9 10 0 6 -7 10 -16 10 -8 0
-12 -4 -9 -10z"/>
<path d="M2167 1296 c-4 -10 0 -12 14 -9 22 6 26 23 5 23 -8 0 -16 -6 -19 -14z"/>
<path d="M50 1227 c0 -9 9 -21 20 -27 11 -6 20 -7 20 -2 0 5 -9 17 -20 27 -18
16 -20 16 -20 2z"/>
</g>
</svg>
